<svg width="996" height="723" viewBox="0 0 996 723" fill="none" xmlns="http://www.w3.org/2000/svg">
<g clip-path="url(#clip0_180_2)">
<path d="M267.106 160.122C269.376 163.461 272.301 166.305 275.704 168.48C279.107 170.655 282.916 172.116 286.9 172.774C288.616 173.083 290.357 173.238 292.101 173.239C298.3 173.223 304.344 171.298 309.411 167.728L310.11 167.185C316.294 162.446 320.435 155.528 321.69 147.839C322.945 140.152 321.219 132.274 316.863 125.816L290.16 87.0076C287.373 82.9554 283.64 79.6432 279.285 77.3576C274.93 75.072 270.084 73.8824 265.165 73.8906C258.972 73.864 252.923 75.7629 247.855 79.324C241.334 83.8864 236.865 90.8279 235.414 98.6533C233.962 106.478 235.642 114.561 240.093 121.159L266.795 159.967L267.106 160.122ZM686.278 167.883L688.066 169.125C692.745 171.946 698.121 173.422 703.585 173.394C708.504 173.377 713.341 172.175 717.686 169.892C722.039 167.608 725.777 164.311 728.581 160.278L755.289 121.469C759.586 115.14 761.34 107.423 760.207 99.8572C759.068 92.2909 755.125 85.4306 749.156 80.6431L747.832 79.7114C742.784 76.1094 736.726 74.1818 730.525 74.2009C725.607 74.1859 720.756 75.3734 716.397 77.6591C712.045 79.9454 708.313 83.2609 705.53 87.3179L678.826 126.126C674.375 132.724 672.695 140.807 674.147 148.632C675.598 156.457 680.067 163.399 686.585 167.961L686.278 167.883ZM497.961 133.034C438.087 133.255 379.59 151.017 329.704 184.124C279.817 217.231 240.728 264.231 217.271 319.313C216.073 321.985 215.573 324.918 215.817 327.837C216.061 330.755 217.043 333.564 218.668 336.001C220.31 338.61 222.607 340.743 225.332 342.187C228.056 343.631 231.112 344.334 234.193 344.228H271.453C274.785 344.165 278.032 343.163 280.82 341.336C283.607 339.511 285.823 336.934 287.21 333.905C306.589 295.183 336.097 262.433 372.598 239.136C409.993 215.454 453.347 202.882 497.612 202.882C541.877 202.882 585.23 215.454 622.626 239.136C659.127 262.433 688.632 295.183 708.013 333.905C709.493 336.907 711.799 339.427 714.657 341.171C717.516 342.916 720.811 343.814 724.16 343.762H761.422C764.396 343.784 767.336 343.063 769.963 341.666C772.596 340.268 774.833 338.237 776.484 335.757C778.128 333.277 779.138 330.425 779.404 327.459C779.677 324.493 779.206 321.506 778.033 318.769C754.491 263.76 715.36 216.844 665.469 183.81C615.575 150.778 557.102 133.072 497.263 132.879L497.961 133.034ZM497.961 108.041C505.916 107.919 513.506 104.679 519.095 99.0176C524.685 93.3564 527.827 85.7267 527.847 77.7716V30.2702C527.826 22.2484 524.629 14.5609 518.957 8.8886C513.284 3.21628 505.596 0.0204902 497.573 0C489.557 0.0205507 481.877 3.2188 476.216 8.89338C470.556 14.5679 467.377 22.2555 467.377 30.2702V77.7716C467.377 85.786 470.556 93.4737 476.216 99.1485C481.877 104.823 489.557 108.021 497.573 108.041H497.961ZM162.546 279.573H115.971C107.834 280.139 100.214 283.771 94.6501 289.735C89.0861 295.698 85.9917 303.551 85.9917 311.706C85.9917 319.863 89.0861 327.715 94.6501 333.679C100.214 339.642 107.834 343.274 115.971 343.84H162.546C166.644 343.729 170.68 342.809 174.42 341.131C178.161 339.453 181.532 337.051 184.339 334.064C187.147 331.076 189.335 327.563 190.777 323.725C192.219 319.888 192.886 315.804 192.742 311.706C192.886 307.61 192.219 303.525 190.777 299.688C189.335 295.85 187.147 292.337 184.339 289.349C181.532 286.362 178.161 283.96 174.42 282.282C170.68 280.604 166.644 279.684 162.546 279.573ZM879.639 279.573H833.065C824.927 280.139 817.307 283.771 811.747 289.735C806.18 295.698 803.09 303.551 803.09 311.706C803.09 319.863 806.18 327.715 811.747 333.679C817.307 339.642 824.927 343.274 833.065 343.84H879.639C883.739 343.729 887.777 342.809 891.516 341.131C895.254 339.453 898.624 337.051 901.435 334.064C904.238 331.076 906.428 327.563 907.875 323.725C909.314 319.888 909.982 315.804 909.839 311.706C909.982 307.61 909.314 303.525 907.875 299.688C906.428 295.85 904.238 292.337 901.435 289.349C898.624 286.362 895.254 283.96 891.516 282.282C887.777 280.604 883.739 279.684 879.639 279.573Z" fill="#FCBD1F"/>
<path d="M123.578 658.961L114.03 690.942H132.815L124.199 658.961H123.578ZM92.5284 710.423L112.556 650.889C113.446 648.411 114.909 646.177 116.825 644.37C118.559 642.709 120.867 641.782 123.268 641.782C125.669 641.782 127.976 642.709 129.711 644.37C131.595 646.218 133.029 648.476 133.902 650.967L153.231 710.498C153.625 711.678 153.834 712.905 153.852 714.147C153.952 716.056 153.344 717.932 152.144 719.426C151.58 720.176 150.837 720.776 149.983 721.165C149.129 721.561 148.191 721.731 147.254 721.677C145.555 721.752 143.888 721.199 142.571 720.128C141.253 719.058 140.377 717.53 140.112 715.852L136.93 705.607H109.45L106.578 715.852C106.159 717.509 105.204 718.983 103.862 720.047C102.693 720.974 101.239 721.465 99.7474 721.445C97.6953 721.472 95.7136 720.695 94.2359 719.269C93.4439 718.621 92.8081 717.803 92.3776 716.875C91.9472 715.947 91.7337 714.938 91.7521 713.915C91.7473 712.728 92.0127 711.562 92.5284 710.498V710.423ZM294.973 658.961L285.735 690.942H304.443L295.439 659.194L294.973 658.961ZM263.923 710.423L283.95 650.889C284.839 648.39 286.332 646.151 288.297 644.37C290.009 642.696 292.308 641.759 294.701 641.759C297.095 641.759 299.394 642.696 301.105 644.37C303.041 646.191 304.505 648.455 305.374 650.967L324.703 710.498C325.073 711.678 325.256 712.912 325.247 714.147C325.347 716.056 324.738 717.932 323.538 719.426C322.982 720.163 322.252 720.756 321.413 721.152C320.574 721.54 319.651 721.725 318.726 721.677C317.019 721.759 315.341 721.206 314.011 720.135C312.681 719.064 311.79 717.537 311.507 715.852L308.324 705.607H280.923L277.973 715.852C277.55 717.489 276.627 718.955 275.334 720.047C274.154 720.954 272.708 721.445 271.22 721.445C270.191 721.465 269.166 721.288 268.207 720.92C267.247 720.545 266.372 719.985 265.631 719.269C264.418 717.878 263.804 716.063 263.923 714.222C263.918 713.042 264.184 711.875 264.699 710.811L263.923 710.423ZM494.157 658.961L485.153 690.942H503.86L494.856 659.194L494.157 658.961ZM463.107 710.423L483.212 650.889C484.073 648.395 485.54 646.155 487.481 644.37C489.193 642.696 491.492 641.759 493.886 641.759C496.28 641.759 498.578 642.696 500.289 644.37C502.225 646.191 503.69 648.455 504.559 650.967L523.887 710.498C524.281 711.678 524.491 712.905 524.509 714.147C524.587 716.063 523.951 717.946 522.723 719.426C522.171 720.169 521.442 720.763 520.601 721.158C519.761 721.554 518.836 721.731 517.91 721.677C516.203 721.759 514.525 721.206 513.195 720.135C511.865 719.064 510.974 717.537 510.691 715.852L507.586 705.607H481.271L478.322 715.852C477.923 717.502 476.997 718.976 475.683 720.047C474.508 720.961 473.058 721.452 471.569 721.445C469.516 721.472 467.535 720.695 466.057 719.269C465.255 718.628 464.607 717.809 464.164 716.882C463.721 715.954 463.492 714.938 463.495 713.915C463.513 712.735 463.778 711.568 464.272 710.498L463.107 710.423ZM199.728 658.263H187.929C186.914 658.305 185.902 658.126 184.963 657.737C184.025 657.348 183.183 656.76 182.495 656.012C181.183 654.569 180.462 652.684 180.477 650.734C180.483 648.773 181.232 646.887 182.572 645.456C183.231 644.663 184.064 644.033 185.007 643.615C185.95 643.197 186.976 643.004 188.007 643.05H228.449C229.459 643.007 230.467 643.194 231.395 643.598C232.322 644.001 233.147 644.61 233.805 645.378C235.057 646.882 235.744 648.777 235.746 650.734C235.781 652.674 235.089 654.557 233.805 656.012C233.143 656.77 232.316 657.368 231.388 657.758C230.459 658.148 229.454 658.321 228.449 658.263H217.348V713.062C217.433 714.208 217.261 715.361 216.845 716.438C216.429 717.509 215.779 718.478 214.942 719.269C214.178 720.053 213.258 720.66 212.241 721.063C211.224 721.465 210.134 721.649 209.043 721.595C207.925 721.67 206.806 721.499 205.761 721.097C204.716 720.695 203.769 720.074 202.988 719.269C202.204 718.444 201.599 717.468 201.212 716.397C200.824 715.333 200.663 714.194 200.737 713.062V658.263H199.728ZM357.771 683.18C357.75 677.876 358.697 672.615 360.566 667.654C362.405 662.932 365.177 658.63 368.716 655.003C372.201 651.325 376.437 648.439 381.136 646.543C386.059 644.514 391.337 643.485 396.661 643.516C400.261 643.552 403.849 643.942 407.373 644.68C410.861 645.388 414.181 646.758 417.153 648.716C418.39 649.438 419.419 650.469 420.14 651.706C420.86 652.944 421.249 654.347 421.268 655.779C421.247 657.659 420.486 659.456 419.149 660.778C417.812 662.1 416.007 662.842 414.127 662.842C412.337 662.713 410.581 662.293 408.926 661.6C406.777 660.791 404.572 660.143 402.327 659.66C400.666 659.333 398.975 659.177 397.282 659.194H396.661C392.526 659.063 388.454 660.23 385.017 662.531C381.839 664.809 379.321 667.89 377.721 671.458C376.098 675.177 375.278 679.197 375.314 683.255C375.288 687.239 376.108 691.181 377.721 694.817C379.274 698.418 381.801 701.508 385.017 703.745C388.469 706.016 392.531 707.176 396.661 707.08C398.539 707.135 400.417 706.951 402.25 706.541C404.69 705.928 407.079 705.123 409.391 704.134C411.113 703.37 412.949 702.899 414.825 702.736C415.874 702.695 416.917 702.899 417.874 703.329C418.831 703.759 419.673 704.407 420.337 705.218C421.532 706.576 422.219 708.301 422.277 710.109C422.31 711.671 421.925 713.219 421.161 714.583C420.397 715.947 419.281 717.086 417.93 717.871C414.8 719.835 411.321 721.179 407.683 721.834C404.056 722.577 400.365 722.966 396.661 722.993C389.578 723.109 382.598 721.288 376.478 717.714C370.583 714.385 365.742 709.461 362.506 703.513C359.153 697.409 357.441 690.533 357.538 683.562L357.771 683.18ZM582.882 658.573V677.977H594.215C595.619 678.072 597.028 677.889 598.361 677.436C599.694 676.983 600.922 676.27 601.978 675.338C602.916 674.408 603.649 673.293 604.13 672.063C604.612 670.833 604.83 669.517 604.772 668.197C604.856 666.869 604.642 665.537 604.145 664.302C603.648 663.066 602.881 661.958 601.9 661.057C599.728 659.261 596.949 658.371 594.137 658.573H582.882ZM566.27 713.369V651.898C566.211 650.759 566.388 649.62 566.788 648.551C567.189 647.483 567.805 646.509 568.599 645.689C569.445 644.887 570.446 644.267 571.541 643.866C572.635 643.465 573.8 643.293 574.964 643.36H594.215C601.442 642.866 608.599 645.049 614.32 649.492C616.67 651.864 618.482 654.713 619.634 657.847C620.786 660.981 621.25 664.325 620.996 667.654C621.091 670.233 620.642 672.802 619.679 675.195C618.716 677.589 617.26 679.753 615.407 681.548C611.394 685.213 606.357 687.573 600.969 688.303L619.599 708.322C620.889 709.597 621.64 711.323 621.694 713.137C621.651 714.222 621.381 715.293 620.9 716.268C620.418 717.243 619.737 718.11 618.9 718.805C617.238 720.429 615.012 721.343 612.689 721.363C611.597 721.363 610.521 721.097 609.55 720.599C608.579 720.101 607.739 719.378 607.101 718.491L582.183 689.619V712.905C582.235 714.031 582.039 715.163 581.611 716.207C581.182 717.25 580.529 718.191 579.699 718.955C578.14 720.408 576.086 721.22 573.955 721.206C571.782 721.186 569.69 720.388 568.056 718.955C567.225 718.191 566.573 717.25 566.144 716.207C565.715 715.163 565.52 714.031 565.572 712.905L566.27 713.369ZM662.292 713.369V653.373C662.262 651.646 662.661 649.939 663.456 648.405C664.181 646.905 665.345 645.659 666.794 644.835C668.426 643.997 670.238 643.571 672.072 643.593H703.121C705.455 643.473 707.747 644.282 709.486 645.844C710.864 647.288 711.628 649.206 711.628 651.199C711.628 653.194 710.864 655.112 709.486 656.555C708.627 657.35 707.603 657.959 706.498 658.345C705.393 658.733 704.213 658.889 703.046 658.806H681.077V674.329H701.723C704.117 674.214 706.464 675.051 708.245 676.658C709.705 678.091 710.544 680.044 710.571 682.089C710.578 683.085 710.373 684.067 709.971 684.981C709.575 685.888 708.981 686.7 708.245 687.368C707.358 688.153 706.328 688.76 705.209 689.142C704.09 689.531 702.903 689.694 701.723 689.619H681.077V705.921H704.363C705.482 705.866 706.607 706.037 707.658 706.426C708.709 706.808 709.677 707.401 710.496 708.172C711.894 709.618 712.679 711.548 712.679 713.567C712.679 715.579 711.894 717.509 710.496 718.955C709.664 719.719 708.681 720.306 707.617 720.681C706.546 721.056 705.414 721.206 704.288 721.131H671.917C669.418 721.233 666.966 720.435 665.009 718.88C664.09 718.219 663.347 717.346 662.846 716.329C662.345 715.313 662.101 714.194 662.137 713.062L662.292 713.369ZM785.558 651.277V699.557C785.783 704.318 784.739 709.065 782.529 713.294C780.782 716.486 778.067 719.044 774.772 720.585C771.648 721.991 768.257 722.7 764.833 722.686C760.275 722.727 755.773 721.663 751.714 719.583C749.872 718.812 748.31 717.502 747.225 715.825C746.147 714.147 745.602 712.182 745.663 710.191C745.663 708.581 746.215 707.019 747.211 705.764C747.682 705.109 748.303 704.584 749.019 704.216C749.729 703.854 750.527 703.663 751.325 703.67C752.096 703.711 752.853 703.868 753.576 704.134L757.151 705.375L761.265 706.848C762.138 707.149 763.052 707.333 763.98 707.394C766.463 707.394 768.093 706.542 768.714 704.911C769.437 702.763 769.778 700.505 769.724 698.234V651.277C769.656 650.16 769.826 649.041 770.229 647.996C770.624 646.95 771.252 646.005 772.05 645.223C773.51 643.817 775.461 643.038 777.487 643.05C778.531 643.013 779.568 643.186 780.543 643.56C781.512 643.933 782.406 644.499 783.156 645.223C783.941 646.011 784.548 646.96 784.937 648.005C785.326 649.049 785.482 650.166 785.407 651.277H785.558ZM876.692 704.209C879.891 701.876 882.388 698.711 883.909 695.055C885.526 691.304 886.344 687.259 886.317 683.18C886.317 680.026 885.874 676.89 884.994 673.863C884.1 671.066 882.736 668.441 880.962 666.102C879.216 663.763 876.958 661.852 874.358 660.514C871.507 659.147 868.369 658.457 865.203 658.495C861.117 658.377 857.106 659.604 853.79 661.988C850.591 664.324 848.094 667.491 846.573 671.147C844.949 674.976 844.13 679.097 844.165 683.255C844.137 687.334 844.956 691.379 846.573 695.13C848.039 698.8 850.516 701.972 853.715 704.291C857.147 706.63 861.206 707.885 865.36 707.885C869.515 707.885 873.567 706.63 876.998 704.291L876.692 704.209ZM845.638 717.407C839.812 714.065 835.044 709.14 831.899 703.199C828.549 697.095 826.837 690.219 826.932 683.255C826.912 677.954 827.86 672.693 829.729 667.732C831.442 663.039 834.082 658.737 837.493 655.08C840.938 651.431 845.12 648.549 849.752 646.621C854.67 644.569 859.951 643.539 865.278 643.593C870.613 643.525 875.907 644.583 880.805 646.698C885.437 648.673 889.612 651.579 893.071 655.236C896.475 658.95 899.115 663.303 900.834 668.042C902.97 673.758 903.897 679.857 903.549 685.95C903.201 692.047 901.591 698.002 898.815 703.438C895.725 709.338 891.011 714.242 885.233 717.564C879.134 721.117 872.182 722.939 865.122 722.836C858.143 722.932 851.266 721.104 845.249 717.564L845.638 717.407ZM139.724 379.077C133.095 379.077 126.738 381.711 122.05 386.397C117.362 391.084 114.729 397.441 114.729 404.07V500.624L45.9538 390.797C43.63 387.261 40.4779 384.345 36.7714 382.302C33.065 380.26 28.9159 379.153 24.6845 379.077C18.169 379.177 11.9485 381.809 7.34079 386.417C2.73305 391.024 0.100103 397.244 0 403.759V577.619C0.355854 583.997 3.14024 589.996 7.78142 594.385C12.4226 598.774 18.5682 601.22 24.9562 601.22C31.3443 601.22 37.4899 598.774 42.1311 594.385C46.7722 589.996 49.5566 583.997 49.9124 577.619V481.375L118.688 591.202C121.023 594.74 124.19 597.651 127.912 599.681C131.633 601.711 135.796 602.797 140.035 602.845C146.643 602.845 152.981 600.22 157.654 595.547C162.327 590.875 164.952 584.538 164.952 577.93V403.759C164.952 397.144 162.329 390.799 157.659 386.114C152.988 381.43 146.65 378.787 140.035 378.767L139.724 379.077ZM248.398 535.707C242.516 529.806 237.866 522.794 234.721 515.078C231.576 507.362 229.998 499.099 230.079 490.767C230.018 482.318 231.682 473.946 234.969 466.162C238.165 458.804 242.72 452.116 248.398 446.448C254.165 440.727 260.96 436.145 268.425 432.943C276.252 429.609 284.68 427.918 293.188 427.975C301.67 427.913 310.074 429.604 317.872 432.943C325.33 436.201 332.141 440.776 337.977 446.448C343.713 452.218 348.321 459.009 351.561 466.473C354.909 474.24 356.601 482.62 356.529 491.077C356.578 499.608 354.887 508.059 351.561 515.914C348.342 523.412 343.733 530.233 337.977 536.017C332.193 541.733 325.369 546.291 317.872 549.445C310.064 552.742 301.663 554.406 293.188 554.334C284.688 554.393 276.264 552.729 268.425 549.445C260.91 546.228 254.105 541.559 248.398 535.707ZM390.218 434.805C385.359 426.326 379.438 418.501 372.597 411.521C365.761 404.755 358.093 398.887 349.775 394.057C341.311 389.235 332.292 385.455 322.918 382.803C298.601 376.11 272.741 377.777 249.485 387.538C222.58 398.858 201.199 420.293 189.947 447.224C184.21 461.011 181.256 475.795 181.256 490.728C181.256 505.66 184.21 520.445 189.947 534.232C201.27 561.053 222.599 582.407 249.407 593.764C263.25 599.553 278.105 602.535 293.11 602.535C308.115 602.535 322.97 599.553 336.812 593.764C350.146 588.104 362.268 579.935 372.52 569.703C382.722 559.499 390.912 547.466 396.661 534.232C402.641 520.526 405.681 505.719 405.588 490.767C405.607 480.72 404.248 470.718 401.551 461.04C398.893 451.668 395.058 442.671 390.141 434.262L390.218 434.805ZM560.992 489.137C554.964 484.115 548.144 480.128 540.81 477.34C533.443 474.479 525.864 472.195 518.143 470.509C511.545 469.035 504.87 467.637 497.806 466.24C492.843 465.313 487.983 463.909 483.29 462.049C480.155 460.842 477.339 458.93 475.062 456.461C473.158 454.068 472.217 451.051 472.422 448C472.412 445.301 473.052 442.64 474.286 440.239C475.642 437.723 477.521 435.526 479.796 433.797C482.548 431.83 485.622 430.359 488.879 429.45C492.917 428.304 497.101 427.755 501.298 427.82C504.988 427.753 508.677 428.013 512.321 428.596C515.004 429.009 517.616 429.792 520.084 430.925C522.465 431.913 524.73 433.163 526.837 434.651L530.873 437.29L534.755 439.851C536.881 441.345 539.243 442.473 541.741 443.188C544.085 443.876 546.518 444.215 548.96 444.197C552.071 444.241 555.159 443.659 558.042 442.49C560.79 441.379 563.294 439.745 565.416 437.678C567.495 435.637 569.156 433.212 570.307 430.537C571.477 427.815 572.084 424.884 572.092 421.921C572.076 420.298 571.868 418.683 571.471 417.109C571.061 415.407 570.38 413.782 569.453 412.297C566.13 406.793 561.905 401.886 556.956 397.783C551.921 393.652 546.361 390.207 540.421 387.538C534.314 384.765 527.906 382.708 521.325 381.406C514.562 379.972 507.669 379.244 500.755 379.233C490.669 379.223 480.659 380.983 471.18 384.433C462.231 387.67 453.945 392.509 446.729 398.714C439.722 404.806 434.019 412.251 429.962 420.602C425.863 429.261 423.767 438.731 423.829 448.31C423.662 457.418 425.574 466.443 429.419 474.701C433.236 482.454 438.724 489.266 445.487 494.648C452.982 500.664 461.43 505.386 470.482 508.619C481.144 512.526 492.169 515.36 503.395 517.079L509.682 518.088L514.184 518.864C517.408 519.423 520.541 520.415 523.499 521.813C526.052 522.973 528.289 524.73 530.019 526.936C531.722 529.473 532.541 532.502 532.348 535.551C532.41 538.331 531.565 541.056 529.942 543.313C528.175 545.765 525.898 547.804 523.266 549.29C520.153 551.061 516.809 552.393 513.33 553.248C509.543 554.167 505.661 554.635 501.764 554.645C494.477 554.843 487.245 553.328 480.651 550.221C474.588 547.057 469.289 542.606 465.126 537.181C462.136 533.309 458.607 529.885 454.647 527.014C451.256 524.71 447.257 523.467 443.158 523.443C440.222 523.468 437.319 524.075 434.619 525.228C431.742 526.345 429.107 528.006 426.857 530.119C424.622 532.253 422.76 534.744 421.346 537.492C419.856 540.453 419.085 543.724 419.094 547.039C419.201 551.4 420.317 555.677 422.354 559.535C425.356 565.832 429.397 571.579 434.309 576.533C439.578 581.958 445.589 586.609 452.162 590.349C459.149 594.434 466.638 597.59 474.441 599.74C482.81 602.04 491.454 603.189 500.134 603.155C511.11 603.267 522.017 601.428 532.348 597.722C541.69 594.298 550.34 589.225 557.887 582.742C564.947 576.541 570.699 568.994 574.809 560.544C578.848 552.033 580.918 542.721 580.864 533.3C581.089 524.396 579.201 515.565 575.352 507.532C571.785 500.563 566.878 494.365 560.914 489.292L560.992 489.137ZM737.429 489.137C731.419 484.131 724.631 480.146 717.325 477.34C709.93 474.489 702.33 472.206 694.58 470.509C687.984 469.035 681.31 467.637 674.246 466.24C669.284 465.313 664.423 463.909 659.73 462.049C656.595 460.842 653.779 458.93 651.502 456.461C649.598 454.068 648.657 451.051 648.863 448C648.89 445.306 649.526 442.652 650.726 440.239C652.082 437.723 653.961 435.526 656.237 433.797C658.988 431.83 662.062 430.359 665.319 429.45C669.383 428.298 673.593 427.749 677.817 427.82C681.481 427.755 685.146 428.015 688.761 428.596C691.442 429.009 694.055 429.792 696.525 430.925C698.905 431.913 701.17 433.163 703.278 434.651L707.317 437.29L711.192 439.851C713.32 441.345 715.681 442.473 718.184 443.188C720.524 443.876 722.96 444.215 725.402 444.197C728.513 444.241 731.603 443.659 734.482 442.49C737.231 441.379 739.735 439.745 741.856 437.678C743.937 435.637 745.595 433.212 746.748 430.537C747.914 427.815 748.521 424.884 748.535 421.921C748.514 420.298 748.31 418.683 747.914 417.109C747.505 415.407 746.823 413.782 745.895 412.297C742.573 406.793 738.343 401.886 733.397 397.783C728.363 393.652 722.803 390.207 716.861 387.538C710.755 384.765 704.349 382.708 697.766 381.406C691.006 379.972 684.109 379.244 677.195 379.233C667.109 379.223 657.099 380.983 647.62 384.433C638.671 387.67 630.385 392.509 623.169 398.714C616.162 404.806 610.46 412.251 606.402 420.602C602.304 429.261 600.207 438.731 600.269 448.31C600.14 457.414 602.05 466.431 605.859 474.701C609.676 482.454 615.164 489.266 621.927 494.648C629.423 500.664 637.871 505.386 646.922 508.619C657.584 512.526 668.61 515.36 679.835 517.079L686.121 518.088L690.624 518.864C693.85 519.423 696.982 520.415 699.942 521.813C702.494 522.973 704.731 524.73 706.457 526.936C708.163 529.473 708.981 532.502 708.79 535.551C708.852 538.331 708.006 541.056 706.382 543.313C704.615 545.765 702.337 547.804 699.704 549.29C696.593 551.061 693.25 552.393 689.771 553.248C685.985 554.167 682.102 554.635 678.205 554.645C670.917 554.843 663.685 553.328 657.091 550.221C651.028 547.057 645.729 542.606 641.566 537.181C638.596 533.292 635.065 529.865 631.087 527.014C627.696 524.71 623.697 523.467 619.599 523.443C616.662 523.468 613.76 524.075 611.06 525.228C608.182 526.345 605.547 528.006 603.297 530.119C601.063 532.253 599.2 534.744 597.786 537.492C596.296 540.453 595.525 543.724 595.535 547.039C595.642 551.4 596.758 555.677 598.795 559.535C601.826 565.815 605.863 571.557 610.749 576.533C616.086 581.859 622.149 586.406 628.758 590.038C635.75 594.112 643.237 597.268 651.036 599.43C659.406 601.73 668.05 602.878 676.73 602.845C687.704 602.964 698.612 601.123 708.941 597.412C718.287 593.988 726.937 588.914 734.482 582.432C741.542 576.23 747.293 568.684 751.407 560.234C755.446 551.722 757.513 542.41 757.458 532.99C757.683 524.086 755.793 515.255 751.946 507.221C748.337 500.301 743.405 494.157 737.429 489.137ZM979.621 388.236H983.27H983.891H984.43L984.976 388.624V389.167V389.711V390.331V391.573V392.117V392.66V393.126C984.642 393.403 984.28 393.637 983.891 393.824H983.27H979.621V388.236ZM978.065 385.364H977.601C977.601 385.364 977.601 385.364 977.601 385.83C977.567 386.009 977.567 386.194 977.601 386.373V400.189C977.554 400.367 977.554 400.554 977.601 400.732C977.54 400.907 977.54 401.1 977.601 401.275C977.601 401.275 977.601 401.275 978.065 401.275H978.611H979.157C979.157 401.275 979.157 401.275 979.621 401.275C979.675 401.125 979.675 400.96 979.621 400.809C979.662 400.631 979.662 400.445 979.621 400.266V397.162H981.094L985.29 401.275H985.754H986.299H986.838H987.302C987.445 401.148 987.561 400.993 987.643 400.819C987.725 400.646 987.766 400.457 987.773 400.266C987.807 400.087 987.807 399.903 987.773 399.724C987.773 399.724 987.773 399.724 987.773 399.258L985.29 396.774C985.535 396.566 985.719 396.299 985.829 395.997L986.606 395.454L987.302 394.678L987.848 393.902C988.012 393.633 988.141 393.346 988.237 393.048C988.271 392.712 988.271 392.375 988.237 392.039V391.03C988.278 390.617 988.278 390.202 988.237 389.788C988.271 389.401 988.271 389.011 988.237 388.624C988.237 388.236 988.237 387.848 987.616 387.538L986.838 386.606L985.985 385.907L984.901 385.364H983.734H978.065ZM980.787 404.147H979.389C978.925 404.062 978.481 403.905 978.065 403.682L976.906 403.138L975.739 402.362L974.729 401.431L973.877 400.422L973.181 399.335L972.56 398.17L972.089 396.851C972.055 396.386 972.055 395.919 972.089 395.454C972.055 394.989 972.055 394.522 972.089 394.057C972.055 393.592 972.055 393.125 972.089 392.66C972.055 392.195 972.055 391.728 972.089 391.263L972.56 389.943L973.181 388.702L973.877 387.615L974.729 386.606L975.739 385.752L976.906 384.976L978.065 384.355L979.389 383.889H980.787H983.577H984.976L986.217 384.355L987.459 384.976L988.551 385.752L989.553 386.606L990.488 387.615L991.266 388.779C991.491 389.144 991.675 389.535 991.805 389.943L992.275 391.263C992.309 391.702 992.309 392.144 992.275 392.582C992.309 393.073 992.309 393.566 992.275 394.057C992.309 394.522 992.309 394.989 992.275 395.454C992.309 395.919 992.309 396.386 992.275 396.851L991.805 398.17C991.661 398.573 991.477 398.962 991.266 399.335L990.488 400.422L989.553 401.431L988.551 402.362L987.459 403.138L986.217 403.682C985.835 403.904 985.412 404.062 984.976 404.147H983.577H980.787ZM980.398 380.474L978.611 380.862L976.981 381.406L975.432 382.182L974.033 383.113L972.71 384.277C972.307 384.682 971.946 385.124 971.625 385.597C971.23 386.015 970.889 386.485 970.616 386.994L969.92 388.546L969.299 390.176C969.258 390.745 969.258 391.316 969.299 391.884C969.258 392.504 969.258 393.126 969.299 393.746C969.251 394.341 969.251 394.937 969.299 395.532C969.258 396.126 969.258 396.722 969.299 397.317C969.47 397.873 969.674 398.417 969.92 398.947L970.616 400.499L971.625 401.897C971.966 402.355 972.328 402.796 972.71 403.216L974.033 404.302C974.47 404.675 974.934 405.013 975.432 405.312C975.923 405.591 976.442 405.825 976.981 406.01L978.611 406.631H980.316H982.179H983.966H985.754L987.384 406.01L988.933 405.234C989.417 404.95 989.888 404.639 990.331 404.302L991.655 403.216C992.037 402.796 992.398 402.355 992.739 401.897L993.749 400.499C993.749 399.956 994.295 399.49 994.526 398.947C994.526 398.404 994.915 397.86 995.065 397.317C995.236 396.731 995.366 396.134 995.454 395.532C995.495 394.937 995.495 394.341 995.454 393.746C995.495 393.126 995.495 392.504 995.454 391.884C995.366 391.307 995.236 390.736 995.065 390.176C995.065 389.633 995.065 389.09 994.526 388.546C994.526 388.003 993.981 387.46 993.749 386.994C993.455 386.473 993.121 385.979 992.739 385.519L991.655 384.277L990.331 383.113L988.933 382.182L987.384 381.406L985.829 380.474L984.048 380.087H980.473L980.398 380.474ZM947.019 491.077C947.026 499.425 945.381 507.693 942.182 515.405C938.989 523.116 934.303 530.121 928.388 536.017C922.603 541.733 915.781 546.291 908.284 549.445C900.473 552.742 892.075 554.406 883.602 554.334C875.075 554.401 866.622 552.738 858.757 549.445C851.13 546.233 844.192 541.567 838.346 535.707C832.615 529.964 828.051 523.163 824.913 515.682C821.639 507.787 819.974 499.315 820.022 490.767C819.96 482.318 821.625 473.946 824.913 466.162C828.113 458.804 832.67 452.116 838.346 446.448C844.11 440.727 850.905 436.145 858.368 432.943C866.227 429.611 874.679 427.92 883.213 427.975C891.693 427.913 900.098 429.604 907.895 432.943C923.04 439.344 935.114 451.361 941.582 466.473C944.958 474.235 946.678 482.615 946.63 491.077H947.019ZM980.555 434.573C970.841 417.849 956.89 403.981 940.108 394.368C931.649 389.531 922.63 385.752 913.25 383.113C888.91 376.42 863.027 378.088 839.744 387.848C812.838 399.2 791.445 420.622 780.127 447.535C774.39 461.321 771.436 476.106 771.436 491.038C771.436 505.971 774.39 520.756 780.127 534.543C791.452 561.387 812.818 582.748 839.662 594.074C853.531 599.864 868.417 602.845 883.445 602.845C898.474 602.845 913.352 599.864 927.221 594.074C954.073 582.643 975.5 561.33 987.07 534.543C996.969 511.409 998.695 485.595 991.961 461.35C989.335 451.967 985.501 442.966 980.555 434.573Z" fill="white"/>
</g>
<defs>
<clipPath id="clip0_180_2">
<rect width="996" height="723" fill="white"/>
</clipPath>
</defs>
</svg>
