<svg width="824" height="345" viewBox="0 0 824 345" fill="none" xmlns="http://www.w3.org/2000/svg">
<path d="M181.106 160.122C183.376 163.461 186.301 166.305 189.704 168.48C193.107 170.655 196.916 172.116 200.9 172.774C202.616 173.083 204.357 173.238 206.101 173.239C212.3 173.223 218.344 171.298 223.411 167.728L224.11 167.185C230.294 162.446 234.435 155.528 235.69 147.839C236.945 140.152 235.219 132.274 230.863 125.816L204.16 87.0076C201.373 82.9554 197.64 79.6432 193.285 77.3576C188.93 75.072 184.084 73.8824 179.165 73.8906C172.972 73.864 166.923 75.7629 161.855 79.324C155.334 83.8864 150.865 90.8279 149.414 98.6533C147.962 106.478 149.642 114.561 154.093 121.159L180.795 159.967L181.106 160.122ZM600.278 167.883L602.066 169.125C606.745 171.946 612.121 173.422 617.585 173.394C622.504 173.377 627.341 172.175 631.686 169.892C636.039 167.608 639.777 164.311 642.581 160.278L669.289 121.469C673.586 115.14 675.34 107.423 674.207 99.8572C673.068 92.2909 669.125 85.4306 663.156 80.6431L661.832 79.7114C656.784 76.1094 650.726 74.1818 644.525 74.2009C639.607 74.1859 634.756 75.3734 630.397 77.6591C626.045 79.9454 622.313 83.2609 619.53 87.3179L592.826 126.126C588.375 132.724 586.695 140.807 588.147 148.632C589.598 156.457 594.067 163.399 600.585 167.961L600.278 167.883ZM411.961 133.034C352.087 133.255 293.59 151.017 243.704 184.124C193.817 217.231 154.728 264.231 131.271 319.313C130.073 321.985 129.573 324.918 129.817 327.837C130.061 330.755 131.043 333.564 132.668 336.001C134.31 338.61 136.607 340.743 139.332 342.187C142.056 343.631 145.112 344.334 148.193 344.228H185.453C188.785 344.165 192.032 343.163 194.82 341.336C197.607 339.511 199.823 336.934 201.21 333.905C220.589 295.183 250.097 262.433 286.598 239.136C323.993 215.454 367.347 202.882 411.612 202.882C455.877 202.882 499.23 215.454 536.626 239.136C573.127 262.433 602.632 295.183 622.013 333.905C623.493 336.907 625.799 339.427 628.657 341.171C631.516 342.916 634.811 343.814 638.16 343.762H675.422C678.396 343.784 681.336 343.063 683.963 341.666C686.596 340.268 688.833 338.237 690.484 335.757C692.128 333.277 693.138 330.425 693.404 327.459C693.677 324.493 693.206 321.506 692.033 318.769C668.491 263.76 629.36 216.844 579.469 183.81C529.575 150.778 471.102 133.072 411.263 132.879L411.961 133.034ZM411.961 108.041C419.916 107.919 427.506 104.679 433.095 99.0176C438.685 93.3564 441.827 85.7267 441.847 77.7716V30.2702C441.826 22.2484 438.629 14.5609 432.957 8.8886C427.284 3.21628 419.596 0.0204902 411.573 0C403.557 0.0205507 395.877 3.2188 390.216 8.89338C384.556 14.5679 381.377 22.2555 381.377 30.2702V77.7716C381.377 85.786 384.556 93.4737 390.216 99.1485C395.877 104.823 403.557 108.021 411.573 108.041H411.961ZM76.5459 279.573H29.9713C21.8341 280.139 14.214 283.771 8.65008 289.735C3.08612 295.698 -0.00830078 303.551 -0.00830078 311.706C-0.00830078 319.863 3.08612 327.715 8.65008 333.679C14.214 339.642 21.8341 343.274 29.9713 343.84H76.5459C80.6438 343.729 84.6797 342.809 88.4201 341.131C92.1613 339.453 95.532 337.051 98.3392 334.064C101.147 331.076 103.335 327.563 104.777 323.725C106.219 319.888 106.886 315.804 106.742 311.706C106.886 307.61 106.219 303.525 104.777 299.688C103.335 295.85 101.147 292.337 98.3392 289.349C95.532 286.362 92.1613 283.96 88.4201 282.282C84.6797 280.604 80.6438 279.684 76.5459 279.573ZM793.639 279.573H747.065C738.927 280.139 731.307 283.771 725.747 289.735C720.18 295.698 717.09 303.551 717.09 311.706C717.09 319.863 720.18 327.715 725.747 333.679C731.307 339.642 738.927 343.274 747.065 343.84H793.639C797.739 343.729 801.777 342.809 805.516 341.131C809.254 339.453 812.624 337.051 815.435 334.064C818.238 331.076 820.428 327.563 821.875 323.725C823.314 319.888 823.982 315.804 823.839 311.706C823.982 307.61 823.314 303.525 821.875 299.688C820.428 295.85 818.238 292.337 815.435 289.349C812.624 286.362 809.254 283.96 805.516 282.282C801.777 280.604 797.739 279.684 793.639 279.573Z" fill="#FCBD1F"/>
</svg>
